<svg width="1200" height="675" viewBox="0 0 1200 675" xmlns="http://www.w3.org/2000/svg" role="img" aria-label="System Cover 3">
  <defs>
    <linearGradient id="bg3" x1="0" y1="0" x2="1" y2="1">
      <stop offset="0%" stop-color="#2d9fe0"/>
      <stop offset="100%" stop-color="#2f73d9"/>
    </linearGradient>
    <linearGradient id="notebook3" x1="0" y1="0" x2="1" y2="1">
      <stop offset="0%" stop-color="#aef3ff"/>
      <stop offset="100%" stop-color="#89d3f1"/>
    </linearGradient>
    <linearGradient id="pencil3" x1="0" y1="0" x2="1" y2="0">
      <stop offset="0%" stop-color="#f8bc3f"/>
      <stop offset="100%" stop-color="#f39a26"/>
    </linearGradient>
  </defs>
  <rect width="1200" height="675" fill="url(#bg3)"/>
  <g transform="translate(96 345)">
    <rect x="0" y="0" width="230" height="185" rx="22" fill="#76d6ff"/>
    <rect x="26" y="28" width="180" height="20" rx="8" fill="#98e8ff"/>
    <rect x="26" y="62" width="180" height="20" rx="8" fill="#98e8ff"/>
    <rect x="26" y="96" width="180" height="20" rx="8" fill="#98e8ff"/>
    <rect x="26" y="130" width="180" height="20" rx="8" fill="#98e8ff"/>
  </g>
  <g transform="translate(360 118) rotate(-10)">
    <rect x="0" y="0" width="560" height="560" rx="30" fill="url(#notebook3)"/>
    <rect x="36" y="0" width="42" height="560" fill="#80c5e8"/>
    <circle cx="57" cy="84" r="12" fill="#5ca4cf"/>
    <circle cx="57" cy="174" r="12" fill="#5ca4cf"/>
    <circle cx="57" cy="264" r="12" fill="#5ca4cf"/>
    <circle cx="57" cy="354" r="12" fill="#5ca4cf"/>
    <circle cx="57" cy="444" r="12" fill="#5ca4cf"/>
    <line x1="130" y1="120" x2="472" y2="120" stroke="#67aecd" stroke-width="10"/>
    <line x1="130" y1="176" x2="472" y2="176" stroke="#67aecd" stroke-width="10"/>
    <line x1="130" y1="232" x2="472" y2="232" stroke="#67aecd" stroke-width="10"/>
    <line x1="130" y1="288" x2="472" y2="288" stroke="#67aecd" stroke-width="10"/>
    <line x1="130" y1="344" x2="430" y2="344" stroke="#67aecd" stroke-width="10"/>
  </g>
  <g transform="translate(180 104) rotate(-12)">
    <rect x="0" y="0" width="266" height="34" rx="12" fill="#ff6a58"/>
    <rect x="244" y="0" width="34" height="34" fill="#ffd4ab"/>
  </g>
  <g transform="translate(558 414) rotate(24)">
    <rect x="0" y="0" width="310" height="36" rx="12" fill="url(#pencil3)"/>
    <polygon points="310,0 356,18 310,36" fill="#f27f1f"/>
  </g>
  <g transform="translate(484 444) rotate(30)">
    <rect x="0" y="0" width="300" height="36" rx="12" fill="url(#pencil3)"/>
    <polygon points="300,0 346,18 300,36" fill="#f27f1f"/>
  </g>
  <g transform="translate(730 250)">
    <circle cx="102" cy="108" r="90" fill="none" stroke="#6cb9dc" stroke-width="10"/>
    <line x1="102" y1="18" x2="102" y2="198" stroke="#6cb9dc" stroke-width="6"/>
    <line x1="12" y1="108" x2="192" y2="108" stroke="#6cb9dc" stroke-width="6"/>
    <line x1="42" y1="48" x2="162" y2="168" stroke="#6cb9dc" stroke-width="6"/>
    <line x1="42" y1="168" x2="162" y2="48" stroke="#6cb9dc" stroke-width="6"/>
  </g>
  <g transform="translate(252 548)">
    <rect x="0" y="0" width="58" height="74" rx="14" fill="#ff6b66"/>
    <rect x="10" y="14" width="38" height="20" rx="6" fill="#ffd5bd"/>
  </g>
</svg>
