<svg width="1200" height="675" viewBox="0 0 1200 675" xmlns="http://www.w3.org/2000/svg" role="img" aria-label="System Cover 1">
  <defs>
    <linearGradient id="bg1" x1="0" y1="0" x2="1" y2="1">
      <stop offset="0%" stop-color="#2f74dc"/>
      <stop offset="100%" stop-color="#265fc4"/>
    </linearGradient>
    <linearGradient id="paper1" x1="0" y1="0" x2="1" y2="1">
      <stop offset="0%" stop-color="#bde9ff"/>
      <stop offset="100%" stop-color="#8fcaf3"/>
    </linearGradient>
    <linearGradient id="pen1" x1="0" y1="0" x2="1" y2="0">
      <stop offset="0%" stop-color="#ffd75f"/>
      <stop offset="100%" stop-color="#f4a833"/>
    </linearGradient>
  </defs>
  <rect width="1200" height="675" fill="url(#bg1)"/>
  <polygon points="40,395 275,205 420,395 180,590" fill="#3f91e6" opacity="0.85"/>
  <polygon points="145,395 273,292 347,395 219,498" fill="#84d1ff" opacity="0.95"/>
  <g transform="translate(560 95) rotate(-8)">
    <rect x="0" y="0" width="420" height="500" rx="20" fill="#3a5bc0"/>
    <rect x="36" y="30" width="348" height="438" rx="14" fill="url(#paper1)"/>
    <line x1="86" y1="108" x2="334" y2="108" stroke="#6fb0dc" stroke-width="10"/>
    <line x1="86" y1="148" x2="334" y2="148" stroke="#6fb0dc" stroke-width="10"/>
    <line x1="86" y1="188" x2="334" y2="188" stroke="#6fb0dc" stroke-width="10"/>
    <line x1="86" y1="228" x2="334" y2="228" stroke="#6fb0dc" stroke-width="10"/>
    <line x1="86" y1="268" x2="334" y2="268" stroke="#6fb0dc" stroke-width="10"/>
    <line x1="86" y1="308" x2="334" y2="308" stroke="#6fb0dc" stroke-width="10"/>
    <line x1="86" y1="348" x2="300" y2="348" stroke="#6fb0dc" stroke-width="10"/>
  </g>
  <g transform="translate(555 72) rotate(-20)">
    <rect x="0" y="0" width="252" height="30" rx="10" fill="url(#pen1)"/>
    <rect x="240" y="0" width="35" height="30" fill="#f07e7e"/>
  </g>
  <g transform="translate(730 430)">
    <ellipse cx="76" cy="60" rx="76" ry="56" fill="none" stroke="#f2b427" stroke-width="14"/>
    <ellipse cx="198" cy="98" rx="76" ry="56" fill="none" stroke="#f2b427" stroke-width="14"/>
    <line x1="0" y1="56" x2="122" y2="90" stroke="#f2b427" stroke-width="14"/>
    <line x1="152" y1="102" x2="272" y2="138" stroke="#f2b427" stroke-width="14"/>
    <line x1="116" y1="90" x2="152" y2="102" stroke="#f2b427" stroke-width="14"/>
  </g>
  <path d="M560 520 C 588 470, 620 470, 648 520" stroke="#132d8d" stroke-width="10" fill="none"/>
  <path d="M620 538 C 648 488, 680 488, 708 538" stroke="#132d8d" stroke-width="10" fill="none"/>
</svg>
